<svg xmlns="http://www.w3.org/2000/svg" xmlns:xlink="http://www.w3.org/1999/xlink" viewBox="0 0 26 26" fill="#5B5B5B">
  <path d="M17.625 0.1875C15.945313 0.1875 14.382813 0.867188 13.09375 2.15625C11.628906 3.621094 10.960938 5.421875 11.15625 7.34375C11.304688 8.773438 11.953125 10.210938 13 11.5L5.75 18.75L4.4375 17.4375C3.796875 16.796875 3.265625 17.328125 2.625 17.96875L2 18.625C1.359375 19.265625 0.828125 19.765625 1.46875 20.40625L2.78125 21.71875L1.75 22.75C1.109375 23.390625 1.109375 24.421875 1.75 25.0625C2.390625 25.703125 3.421875 25.703125 4.0625 25.0625L15.4375 13.6875C16.667969 14.460938 18.007813 14.875 19.3125 14.875C20.988281 14.875 22.554688 14.195313 23.84375 12.90625C25.308594 11.441406 25.976563 9.644531 25.78125 7.71875C25.605469 5.988281 24.6875 4.246094 23.21875 2.78125C21.554688 1.117188 19.574219 0.1875 17.625 0.1875 Z M 17.6875 2.25C19.082031 2.25 20.527344 2.960938 21.78125 4.21875C22.894531 5.332031 23.589844 6.617188 23.71875 7.875C23.851563 9.179688 23.394531 10.417969 22.375 11.4375C21.460938 12.347656 20.398438 12.8125 19.25 12.8125C17.855469 12.8125 16.410156 12.101563 15.15625 10.84375C14.042969 9.734375 13.347656 8.445313 13.21875 7.1875C13.085938 5.882813 13.542969 4.644531 14.5625 3.625C15.472656 2.714844 16.535156 2.25 17.6875 2.25Z" fill="#5B5B5B" />
</svg>