<?xml version="1.0" encoding="UTF-8" standalone="no"?>
<svg
   xmlns:dc="http://purl.org/dc/elements/1.1/"
   xmlns:cc="http://creativecommons.org/ns#"
   xmlns:rdf="http://www.w3.org/1999/02/22-rdf-syntax-ns#"
   xmlns:svg="http://www.w3.org/2000/svg"
   xmlns="http://www.w3.org/2000/svg"
   xmlns:sodipodi="http://sodipodi.sourceforge.net/DTD/sodipodi-0.dtd"
   xmlns:inkscape="http://www.inkscape.org/namespaces/inkscape"
   width="200"
   height="200"
   viewBox="0 0 52.916665 52.916668"
   version="1.1"
   id="svg8"
   inkscape:version="1.0.1 (3bc2e813f5, 2020-09-07)"
   sodipodi:docname="cuarto.svg">
  <defs
     id="defs2" />
  <sodipodi:namedview
     id="base"
     pagecolor="#ffffff"
     bordercolor="#666666"
     borderopacity="1.0"
     inkscape:pageopacity="0.0"
     inkscape:pageshadow="2"
     inkscape:zoom="1.979899"
     inkscape:cx="89.722171"
     inkscape:cy="98.704804"
     inkscape:document-units="px"
     inkscape:current-layer="layer1"
     inkscape:document-rotation="0"
     showgrid="false"
     inkscape:snap-page="true"
     inkscape:snap-center="true"
     inkscape:snap-object-midpoints="true"
     inkscape:snap-text-baseline="true"
     inkscape:snap-midpoints="true"
     inkscape:snap-smooth-nodes="true"
     inkscape:snap-intersection-paths="true"
     inkscape:object-paths="true"
     inkscape:snap-bbox="true"
     inkscape:bbox-paths="true"
     inkscape:bbox-nodes="true"
     inkscape:snap-bbox-edge-midpoints="true"
     inkscape:snap-bbox-midpoints="true"
     units="px"
     inkscape:window-width="1280"
     inkscape:window-height="961"
     inkscape:window-x="-8"
     inkscape:window-y="-8"
     inkscape:window-maximized="1" />
  <metadata
     id="metadata5">
    <rdf:RDF>
      <cc:Work
         rdf:about="">
        <dc:format>image/svg+xml</dc:format>
        <dc:type
           rdf:resource="http://purl.org/dc/dcmitype/StillImage" />
        <dc:title></dc:title>
      </cc:Work>
    </rdf:RDF>
  </metadata>
  <g
     inkscape:label="Capa 1"
     inkscape:groupmode="layer"
     id="layer1">
    <g
       id="g857"
       transform="matrix(0.98906551,0,0,0.98906551,7.9065112,7.8109513)">
      <path
         fill="#f5ce85"
         d="M 1.566,35.793 2.974,31.229 14.798,19.404 14.206,18.813 c -0.419,-0.418 -0.648,-0.974 -0.648,-1.565 0,-0.591 0.229,-1.147 0.648,-1.566 l 0.961,-0.962 -0.025,-0.238 c -0.048,-0.444 -0.071,-0.859 -0.071,-1.267 0,-6.459 5.255,-11.714 11.714,-11.714 l 0.333,0.005 c 6.104,0.168 11.208,5.272 11.377,11.376 0.089,3.195 -1.087,6.213 -3.312,8.5 -2.225,2.288 -5.207,3.547 -8.397,3.547 -0.408,0 -0.822,-0.023 -1.268,-0.071 l -0.238,-0.026 -0.961,0.961 c -0.419,0.418 -0.975,0.648 -1.566,0.648 -0.591,0 -1.147,-0.23 -1.565,-0.648 L 20.596,25.201 18.297,27.5 H 14.5 v 3.797 L 13.297,32.5 H 9.5 v 3.797 L 8.762,37.035 4.209,38.433 Z M 26.971,5.5 c -2.012,0 -3.902,0.783 -5.324,2.206 L 21.293,8.06 31.941,18.708 32.295,18.354 C 33.717,16.932 34.5,15.041 34.5,13.03 34.5,11.019 33.717,9.128 32.295,7.706 30.873,6.283 28.982,5.5 26.971,5.5 Z"
         id="path837" />
      <path
         fill="#967a44"
         d="m 26.786,2 c 0.106,0 0.212,10e-4 0.318,0.004 5.844,0.162 10.73,5.047 10.891,10.891 0.085,3.058 -1.041,5.948 -3.17,8.137 -2.13,2.19 -4.985,3.396 -8.039,3.396 -0.39,0 -0.787,-0.022 -1.214,-0.068 l -0.476,-0.051 -0.338,0.338 -0.792,0.792 c -0.324,0.324 -0.754,0.502 -1.212,0.502 -0.458,0 -0.888,-0.178 -1.212,-0.502 L 21.304,25.201 20.597,24.494 19.89,25.201 18.09,27 H 15 14 v 1 3.09 L 13.09,32 H 10 9 v 1 3.09 L 8.496,36.594 4.349,37.868 2.133,35.653 3.415,31.495 14.798,20.112 15.505,19.405 14.798,18.698 14.56,18.46 c -0.324,-0.324 -0.502,-0.754 -0.502,-1.212 0,-0.458 0.178,-0.888 0.502,-1.212 L 15.352,15.244 15.69,14.906 15.639,14.43 C 15.593,14.003 15.571,13.606 15.571,13.216 15.571,7.031 20.602,2 26.786,2 m 5.155,17.414 0.707,-0.707 C 34.165,17.191 35,15.174 35,13.029 35,10.884 34.165,8.868 32.648,7.351 31.132,5.835 29.115,5 26.971,5 24.827,5 22.81,5.835 21.293,7.352 l -0.707,0.707 0.707,0.707 9.941,9.941 0.707,0.707 M 26.786,1 C 20.04,1 14.571,6.468 14.571,13.214 c 0,0.447 0.027,0.887 0.074,1.321 l -0.792,0.792 c -1.06,1.06 -1.06,2.779 0,3.839 L 14.091,19.404 2.533,30.963 1,35.933 4.068,39 9.028,37.476 10,36.504 V 33 h 3.504 L 15,31.504 V 28 h 3.504 l 2.091,-2.091 0.238,0.238 c 0.53,0.53 1.225,0.795 1.919,0.795 0.695,0 1.389,-0.265 1.919,-0.795 l 0.792,-0.792 c 0.434,0.047 0.874,0.074 1.321,0.074 6.861,0 12.401,-5.657 12.209,-12.561 C 38.816,6.494 33.503,1.181 27.13,1.005 27.016,1.002 26.9,1 26.786,1 Z M 31.941,18 22,8.059 C 23.373,6.686 25.172,6 26.971,6 c 1.799,0 3.598,0.686 4.971,2.059 2.744,2.745 2.744,7.196 -0.001,9.941 z"
         id="path839" />
      <path
         fill="#dbb065"
         d="m 3.306,26.949 h 15.775 v 1 H 3.306 Z"
         transform="rotate(-45.001,11.193,27.45)"
         id="path841" />
      <path
         fill="#967a44"
         d="m 17.114,18.465 h 1 v 7.526 h -1 z"
         transform="rotate(-45.001,17.613,22.229)"
         id="path843" />
    </g>
  </g>
</svg>
